HIERARCHY
ROOT Hips
{
  OFFSET 0 89.5177 0.535
  CHANNELS 6 Xposition Yposition Zposition Zrotation Xrotation Yrotation
  JOINT Spine
  {
    OFFSET 12.0259 -0.162855 1.69034e-005
    CHANNELS 3 Zrotation Xrotation Yrotation
    JOINT Spine1
    {
      OFFSET 15.3169 -0.0121922 0
      CHANNELS 3 Zrotation Xrotation Yrotation
      JOINT Spine2
      {
        OFFSET 15.3176 -0.0121908 0
        CHANNELS 3 Zrotation Xrotation Yrotation
        JOINT Neck
        {
          OFFSET 19.9142 1.56338 0
          CHANNELS 3 Zrotation Xrotation Yrotation
          JOINT Head
          {
            OFFSET 6.92651 0 0
            CHANNELS 3 Zrotation Xrotation Yrotation
            End Site
            {
              OFFSET 20.7666 0 0
            }
          }
          JOINT LeftShoulder
          {
            OFFSET -6.20654 0.708824 7.28219
            CHANNELS 3 Zrotation Xrotation Yrotation
            JOINT LeftArm
            {
              OFFSET 14.108 0 -1.52588e-005
              CHANNELS 3 Zrotation Xrotation Yrotation
              JOINT LeftForeArm
              {
                OFFSET 28.5802 0 0
                CHANNELS 3 Zrotation Xrotation Yrotation
                JOINT LeftHand
                {
                  OFFSET 27.092 0 0
                  CHANNELS 3 Zrotation Xrotation Yrotation
                  End Site
                  {
                    OFFSET 9.55928 -0.186424 0.145352
                  }
                }
              }
            }
          }
          JOINT RightShoulder
          {
            OFFSET -6.20654 0.708866 -7.28218
            CHANNELS 3 Zrotation Xrotation Yrotation
            JOINT RightArm
            {
              OFFSET 14.108 0 1.52588e-005
              CHANNELS 3 Zrotation Xrotation Yrotation
              JOINT RightForeArm
              {
                OFFSET 28.5802 0 0
                CHANNELS 3 Zrotation Xrotation Yrotation
                JOINT RightHand
                {
                  OFFSET 27.092 0 0
                  CHANNELS 3 Zrotation Xrotation Yrotation
                  End Site
                  {
                    OFFSET 9.55929 -0.186417 -0.145354
                  }
                }
              }
            }
          }
        }
      }
    }
  }
  JOINT LeftUpLeg
  {
    OFFSET 0.005 -0.535 8.837
    CHANNELS 3 Zrotation Xrotation Yrotation
    JOINT LeftLeg
    {
      OFFSET 39.9035 0 0
      CHANNELS 3 Zrotation Xrotation Yrotation
      JOINT LeftFoot
      {
        OFFSET 39.6689 0 0
        CHANNELS 3 Zrotation Xrotation Yrotation
        JOINT LeftToe
        {
          OFFSET 10.1624 13.6296 0
          CHANNELS 3 Zrotation Xrotation Yrotation
          End Site
          {
            OFFSET 8.38147 0 0
          }
        }
      }
    }
  }
  JOINT RightUpLeg
  {
    OFFSET 0.005 -0.535 -8.837
    CHANNELS 3 Zrotation Xrotation Yrotation
    JOINT RightLeg
    {
      OFFSET 39.9035 0 0
      CHANNELS 3 Zrotation Xrotation Yrotation
      JOINT RightFoot
      {
        OFFSET 39.6689 0 0
        CHANNELS 3 Zrotation Xrotation Yrotation
        JOINT RightToe
        {
          OFFSET 10.1624 13.6296 0
          CHANNELS 3 Zrotation Xrotation Yrotation
          End Site
          {
            OFFSET 8.38147 0 0
          }
        }
      }
    }
  }
}
MOTION
Frames:	15
Frame Time:	0.0333333
510.132 80.171 -168.786 107.38 44.3437 -13.7451 -0.821494 -0.154225 -0.091773 -1.64324 -0.306653 -0.185568 -1.64324 -0.306653 -0.185578 -8.31146e-012 -9.0191e-006 -5.27751e-005 -2.11533 18.1244 -7.37474 -178.351 -6.12879 -74.9109 1.28913 12.0993 55.9387 -83.1353 7.95139e-016 -0 -18.5217 -42.0912 -12.4864 -177.19 8.35454 71.3346 17.1567 -0.423634 -65.5093 -87.8112 3.18055e-015 -0 -27.0367 52.5141 26.7297 -9.1234 1.87338 -160.11 -27.1302 6.36111e-015 7.95139e-016 30.9562 1.15625 -18.5941 90 1.21329e-020 9.54166e-015 -43.4078 -7.7199 161.845 -45.8656 0 -0 14.7778 -3.35506 12.9371 90 4.85314e-020 -3.18055e-015 
506.181 79.3775 -169.557 105.768 43.7703 -14.41 -0.660113 -0.0443735 0.260462 -1.32002 -0.0912778 0.520574 -1.32002 -0.0912777 0.520565 -8.31066e-012 -9.0191e-006 -5.27751e-005 -1.74593 20.0144 -7.87068 -178.219 -6.51627 -74.6786 3.40277 10.5373 56.3826 -83.3624 -3.97569e-015 6.36111e-015 -19.0645 -42.4553 -12.7403 -177.145 8.28788 70.9163 16.8952 0.93017 -65.4953 -88.6826 0 3.18055e-015 -28.5106 52.8652 27.9219 -8.29455 3.91283 -156.202 -29.7923 0 -3.18055e-015 32.7989 -1.07214 -13.8949 90 3.97569e-016 -0 -42.9225 -9.34842 165.327 -50.9208 0 -0 19.1809 -3.0993 10.8553 90 1.21329e-020 9.54166e-015 
502.087 78.8359 -170.337 104.136 44.1397 -15.1302 -0.474457 -0.053377 0.543632 -0.94839 -0.110784 1.08698 -0.94839 -0.110784 1.08697 -8.30589e-012 -9.0191e-006 -5.27751e-005 -1.35095 21.7566 -7.79445 -178.312 -6.30538 -74.9776 5.81478 9.1724 57.5054 -83.0647 -7.95139e-016 -6.36111e-015 -20.5065 -42.3855 -13.7862 -177.126 8.1643 70.5299 16.2668 2.34537 -65.668 -88.1889 6.36111e-015 6.36111e-015 -30.0751 52.7262 29.2361 -9.58679 5.90163 -152.722 -35.1041 3.18055e-015 -6.36111e-015 33.9141 -5.27999 -3.43917 90 -1.59028e-015 3.18055e-015 -40.806 -11.2166 168.905 -54.2664 -6.36111e-015 -1.27222e-014 23.1692 -2.31595 8.83512 90 1.21329e-020 -3.18055e-015 
498.376 78.6883 -170.981 103.852 45.7913 -15.4657 -0.485174 -0.199473 0.518632 -0.968532 -0.402854 1.03574 -0.968532 -0.402854 1.03573 -8.30589e-012 -9.0191e-006 -5.27751e-005 -1.20823 23.0513 -7.60831 -178.351 -6.21057 -75.0971 6.57173 8.26602 58.2354 -82.2083 -3.18055e-015 -1.27222e-014 -21.9801 -41.5298 -14.7536 -176.956 8.34966 69.8861 15.3894 3.42918 -65.5534 -87.3203 1.59028e-015 -3.18055e-015 -31.3734 51.7505 30.3136 -13.4733 3.86902 -150.999 -43.8664 -3.18055e-015 -3.18055e-015 30.2319 -10.2888 3.54295 90 7.95139e-016 6.36111e-015 -38.5964 -12.4818 170.994 -56.0963 3.18056e-015 -0 26.5739 -0.891323 7.10627 90 3.63986e-020 -3.18055e-015 
495.103 79.2406 -171.244 103.891 47.7445 -15.778 -0.525415 -0.218083 0.440291 -1.04915 -0.43972 0.878749 -1.04915 -0.43972 0.87874 -8.30589e-012 -9.0191e-006 -5.27751e-005 -1.28481 23.1206 -7.26882 -178.432 -5.90182 -75.095 6.00432 8.096 58.6984 -82.1671 3.18055e-015 -3.18055e-015 -22.4155 -39.2573 -14.5032 -176.921 8.38092 69.7442 15.2041 3.49727 -65.7437 -87.4016 -6.36111e-015 3.18055e-015 -32.0973 50.3845 30.6542 -16.726 -0.47038 -152.053 -51.3871 -3.18055e-015 -1.59028e-015 25.12 -14.9672 11.1345 90 7.65321e-015 -0 -35.1372 -13.4451 172.979 -55.0628 -6.36111e-015 -0 28.5389 0.761921 5.69812 90 0 -0 
492.378 80.1871 -171.03 104.065 49.5766 -14.8083 -0.550416 -0.0879997 0.108702 -1.10067 -0.176572 0.216731 -1.10067 -0.176572 0.216722 -8.30907e-012 -9.0191e-006 -5.27751e-005 -1.40721 21.9921 -6.99711 -178.503 -5.59531 -74.9962 5.05746 8.84563 58.9298 -84.3327 -2.38542e-015 -1.27222e-014 -20.997 -38.6761 -13.2156 -177.094 8.14049 70.2813 15.5037 2.50908 -66.086 -88.9458 -3.18055e-015 -0 -32.9496 50.1216 31.2966 -18.0388 -4.9135 -156.528 -55.4433 -3.18055e-015 1.59028e-015 25.2037 -10.7922 3.99204 90 -9.93923e-016 -0 -31.8154 -14.1724 173.278 -52.7804 3.18056e-015 -0 29.575 1.67157 4.61807 90 -6.06643e-021 6.36111e-015 
489.905 81.3659 -170.543 104.411 50.6209 -13.548 -0.638765 0.209223 -0.239559 -1.27666 0.421568 -0.476597 -1.27666 0.421568 -0.476606 -8.30669e-012 -9.0191e-006 -5.27751e-005 -1.37779 19.8583 -7.08108 -178.372 -5.89205 -74.5239 4.01183 9.97782 58.8625 -87.4776 -7.95139e-016 -6.36111e-015 -20.775 -40.1789 -12.8342 -177.311 7.90309 71.1405 15.0244 0.889275 -65.839 -90.952 1.59028e-015 -9.54166e-015 -34.779 50.9836 33.0004 -20.884 -6.60187 -161.809 -57.286 -3.18055e-015 4.77083e-015 24.1338 -2.72542 -7.83703 90 -2.38542e-015 9.54166e-015 -28.5449 -14.6746 173.254 -49.3595 3.18056e-015 -0 29.7959 1.98908 3.74374 90 -6.06643e-021 9.54166e-015 
487.452 82.6008 -170.009 104.936 51.3113 -12.9338 -0.796564 0.550924 -0.464416 -1.58875 1.1087 -0.921011 -1.58875 1.1087 -0.921021 -8.30748e-012 -9.0191e-006 -5.27751e-005 -1.36849 17.1505 -7.29526 -178.146 -6.45947 -73.9485 3.53967 11.4497 58.4613 -91.5027 -1.59028e-015 3.18055e-015 -21.0503 -43.27 -13.3838 -177.468 7.80766 71.9725 13.4945 -1.00948 -65.1445 -92.8683 1.59028e-015 -9.54166e-015 -37.1562 51.7544 35.0227 -24.8036 -5.26414 -166.577 -57.4902 0 1.59028e-015 21.408 2.35399 -12.6539 90 1.59028e-015 6.36111e-015 -24.8512 -15.2453 173.943 -44.8278 6.36111e-015 3.18056e-015 29.37 2.14873 2.9125 90 -1.21329e-020 1.59028e-014 
485.118 83.754 -169.429 105.881 51.9476 -12.775 -1.0147 0.854808 -0.661853 -2.01979 1.72161 -1.3085 -2.01979 1.72161 -1.30851 -8.30907e-012 -9.0191e-006 -5.27751e-005 -1.26033 14.6277 -7.54472 -177.877 -7.14938 -73.4156 3.7883 12.7226 57.8361 -96.1108 2.38542e-015 -0 -21.4299 -46.3409 -14.0828 -177.579 7.79628 72.6881 11.1236 -2.768 -64.2479 -94.6406 -1.59028e-015 -1.27222e-014 -38.7162 52.6015 36.2507 -28.3626 -1.42995 -171.433 -56.3459 -6.36111e-015 -1.59028e-015 20.7974 3.32866 -7.86866 90 1.59028e-015 -0 -21.455 -16.0553 174.739 -40.1863 -6.36111e-015 -0 28.7789 2.1455 1.20254 90 2.98177e-016 -1.90833e-014 
482.85 84.6613 -168.775 106.946 52.3865 -13.023 -1.23193 1.16251 -0.785686 -2.44856 2.342 -1.54649 -2.44856 2.342 -1.54649 -8.30748e-012 -9.0191e-006 -5.27751e-005 -1.05926 12.5228 -7.69948 -177.605 -7.8396 -72.9507 4.40293 13.419 57.0247 -100.8 -4.37326e-015 -0 -23.2674 -48.6457 -15.8128 -177.711 7.68845 73.3656 8.76737 -4.01252 -63.5228 -96.3934 3.18055e-015 1.27222e-014 -38.9009 53.4178 36.3498 -31.507 3.03721 -175.335 -54.1129 -6.36111e-015 -1.59028e-015 18.8619 1.76101 -3.49884 90 0 -0 -18.1793 -16.9185 175.837 -35.6496 1.27222e-014 6.36111e-015 28.1743 1.98251 -0.679896 90 5.96354e-016 -1.90833e-014 
480.642 85.1899 -168.048 107.945 52.5374 -13.2857 -1.41937 1.50795 -0.90059 -2.81634 3.03804 -1.76427 -2.81634 3.03804 -1.76428 -8.30669e-012 -9.0191e-006 -5.27751e-005 -0.854298 10.7121 -7.69043 -177.392 -8.41069 -72.6993 4.93284 13.2586 56.1582 -104.954 9.81499e-016 3.18055e-015 -26.8485 -50.0329 -19.1626 -177.863 7.44313 73.9347 6.57646 -4.56375 -62.9803 -97.8117 0 6.36111e-015 -39.0193 53.9379 36.3905 -33.4676 7.9658 -178.951 -49.976 -3.18055e-015 -1.59028e-015 16.8765 -0.185678 0.961316 90 0 9.54166e-015 -15.3623 -17.4749 176.91 -31.9839 0 -1.59028e-015 27.9525 1.86631 -2.37353 90 3.97569e-016 -6.36111e-015 
478.525 85.3054 -167.281 108.61 52.4924 -13.4424 -1.56024 1.87502 -0.98667 -3.09044 3.77642 -1.92324 -3.09044 3.77642 -1.92325 -8.30828e-012 -9.0191e-006 -5.27751e-005 -0.680204 9.22468 -7.51091 -177.299 -8.70358 -72.6835 5.33006 12.2785 55.4932 -108.611 3.77691e-015 -3.18055e-015 -31.1558 -50.4481 -23.216 -178.022 7.10239 74.3909 4.66554 -4.29418 -62.5115 -98.4277 -1.59028e-015 1.59028e-014 -39.3503 54.187 36.624 -32.8369 11.375 176.528 -41.8554 -6.36111e-015 -4.77083e-015 14.9698 0.16172 5.95546 90 3.97569e-016 9.54166e-015 -13.0937 -18.1533 177.731 -29.6175 6.36111e-015 1.59028e-015 28.0944 1.47906 -2.82442 90 7.95139e-016 -1.27222e-014 
476.41 85.1003 -166.45 108.837 52.4532 -13.5677 -1.67368 2.17661 -1.01084 -3.31228 4.38198 -1.95953 -3.31228 4.38198 -1.95954 -8.30629e-012 -9.0191e-006 -5.27751e-005 -0.525356 8.23492 -7.12392 -177.276 -8.84923 -72.8167 5.67448 10.6658 55.1423 -111.815 -1.59028e-015 -9.54166e-015 -34.2237 -50.342 -25.9991 -178.183 6.68229 74.7483 2.95928 -3.30303 -62.2163 -98.1776 -2.38542e-015 -9.54166e-015 -39.1226 54.2887 36.4135 -32.4705 10.6774 172.429 -34.2406 0 3.18055e-015 12.3877 3.15275 3.03192 90 -7.95139e-016 -0 -11.2618 -18.3249 178.599 -28.9711 -6.36111e-015 -3.18056e-015 28.5266 1.22147 -2.30885 90 -3.97569e-016 -1.27222e-014 
474.193 84.5968 -165.491 108.016 52.6056 -13.0352 -1.64915 2.36661 -0.983001 -3.26162 4.7607 -1.89963 -3.26162 4.7607 -1.89964 -8.30788e-012 -9.0191e-006 -5.27751e-005 -0.519527 7.80387 -6.72242 -177.286 -8.91649 -72.9921 5.79137 8.52573 55.3315 -114.379 4.37326e-015 3.18055e-015 -36.9313 -49.9571 -28.3834 -178.317 6.20933 74.8028 1.1386 -1.71127 -61.8032 -97.6082 -7.95139e-016 -0 -38.6223 53.498 35.7753 -34.7161 7.46111 169.117 -33.5182 -3.18055e-015 1.59028e-015 11.6431 4.99058 5.61634 90 2.98177e-016 -6.36111e-015 -9.74091 -18.719 179.208 -30.4645 9.54167e-015 6.36111e-015 29.6288 1.0336 -1.79058 90 -7.95139e-016 -3.18055e-015 
471.803 83.836 -164.446 105.805 52.2165 -11.6526 -1.51792 2.55788 -0.886055 -3.00055 5.13854 -1.70628 -3.00055 5.13854 -1.70629 -8.30748e-012 -9.0191e-006 -5.27751e-005 -0.270613 7.96093 -6.10527 -177.341 -8.84797 -73.2 5.85383 6.40917 55.92 -116.534 -7.95139e-016 4.77083e-015 -39.7939 -49.0633 -30.8006 -178.48 5.52508 74.5936 -0.686079 -0.0923901 -61.4609 -97.3843 -1.98785e-015 3.18055e-015 -38.0537 51.9362 34.7318 -33.8827 5.10965 167.791 -31.6552 -3.18055e-015 1.59028e-015 8.88369 1.10387 12.2335 90 -1.98785e-016 -0 -9.02435 -19.2967 179.368 -34.9504 -1.27222e-014 -9.54167e-015 30.6022 0.120231 -0.054551 90 3.97569e-016 3.18055e-015 
